<svg width="30" height="30" viewBox="0 0 24 24" fill="none" xmlns="http://www.w3.org/2000/svg">
	<g clip-path="url(#clip0_1018_3046)">
		<path
			d="M17.8002 19.817L15.6282 20.955C15.5638 20.9885 15.4913 21.0035 15.4188 20.9982C15.3463 20.9929 15.2767 20.9676 15.2178 20.9251C15.1589 20.8826 15.113 20.8245 15.0851 20.7574C15.0573 20.6903 15.0487 20.6167 15.0602 20.545L15.4752 18.134L13.7182 16.427C13.6658 16.3763 13.6287 16.3119 13.6111 16.2411C13.5935 16.1703 13.5962 16.096 13.6188 16.0266C13.6414 15.9573 13.6831 15.8957 13.7391 15.8489C13.795 15.8021 13.863 15.772 13.9352 15.762L16.3632 15.41L17.4492 13.217C17.4817 13.1517 17.5318 13.0967 17.5938 13.0583C17.6558 13.0199 17.7273 12.9995 17.8002 12.9995C17.8732 12.9995 17.9447 13.0199 18.0067 13.0583C18.0687 13.0967 18.1188 13.1517 18.1512 13.217L19.2372 15.41L21.6652 15.762C21.7373 15.7723 21.805 15.8027 21.8607 15.8495C21.9164 15.8963 21.9579 15.9578 21.9805 16.027C22.003 16.0962 22.0058 16.1703 21.9885 16.241C21.9711 16.3117 21.9343 16.3761 21.8822 16.427L20.1252 18.134L20.5392 20.544C20.5517 20.6158 20.5437 20.6898 20.5162 20.7573C20.4887 20.8249 20.4429 20.8834 20.3838 20.9262C20.3248 20.969 20.2549 20.9944 20.1822 20.9995C20.1094 21.0046 20.0367 20.9891 19.9722 20.955L17.8002 19.817Z"
			stroke="#FF41EC"
			stroke-width="2"
			stroke-linecap="round"
			stroke-linejoin="round"
		/>
		<path
			d="M6.20063 19.817L4.02863 20.955C3.96417 20.9885 3.89166 21.0035 3.81919 20.9982C3.74672 20.9929 3.67714 20.9676 3.61822 20.9251C3.5593 20.8826 3.51336 20.8245 3.48554 20.7574C3.45771 20.6903 3.44908 20.6167 3.46063 20.545L3.87563 18.134L2.11863 16.427C2.06619 16.3763 2.02905 16.3119 2.01147 16.2411C1.99389 16.1703 1.99656 16.096 2.01919 16.0266C2.04182 15.9573 2.08349 15.8957 2.13944 15.8489C2.19539 15.8021 2.26338 15.772 2.33563 15.762L4.76363 15.41L5.84963 13.217C5.88211 13.1517 5.93217 13.0967 5.99418 13.0583C6.05618 13.0199 6.12768 12.9995 6.20063 12.9995C6.27357 12.9995 6.34507 13.0199 6.40708 13.0583C6.46909 13.0967 6.51915 13.1517 6.55163 13.217L7.63763 15.41L10.0656 15.762C10.1377 15.7723 10.2054 15.8027 10.2611 15.8495C10.3168 15.8963 10.3583 15.9578 10.3809 16.027C10.4034 16.0962 10.4062 16.1703 10.3888 16.241C10.3715 16.3117 10.3347 16.3761 10.2826 16.427L8.52563 18.134L8.93963 20.544C8.95205 20.6158 8.94408 20.6898 8.91661 20.7573C8.88914 20.8249 8.84327 20.8834 8.78422 20.9262C8.72517 20.969 8.6553 20.9944 8.58254 20.9995C8.50979 21.0046 8.43706 20.9891 8.37263 20.955L6.20063 19.817Z"
			stroke="#FF41EC"
			stroke-width="2"
			stroke-linecap="round"
			stroke-linejoin="round"
		/>
		<path
			d="M11.9995 9.81698L9.82746 10.955C9.763 10.9885 9.69049 11.0035 9.61802 10.9982C9.54554 10.9929 9.47597 10.9676 9.41705 10.9251C9.35813 10.8826 9.31219 10.8245 9.28436 10.7574C9.25654 10.6903 9.24791 10.6167 9.25946 10.545L9.67446 8.13398L7.91746 6.42698C7.86501 6.37628 7.82788 6.31186 7.8103 6.24107C7.79272 6.17027 7.79539 6.09597 7.81802 6.02662C7.84065 5.95728 7.88232 5.89569 7.93827 5.8489C7.99422 5.8021 8.0622 5.77198 8.13446 5.76198L10.5625 5.40998L11.6485 3.21698C11.6809 3.15166 11.731 3.0967 11.793 3.05828C11.855 3.01987 11.9265 2.99951 11.9995 2.99951C12.0724 2.99951 12.1439 3.01987 12.2059 3.05828C12.2679 3.0967 12.318 3.15166 12.3505 3.21698L13.4365 5.40998L15.8645 5.76198C15.9365 5.77234 16.0042 5.80265 16.0599 5.84949C16.1156 5.89633 16.1571 5.95783 16.1797 6.02702C16.2023 6.09621 16.205 6.17034 16.1877 6.24102C16.1703 6.3117 16.1335 6.37612 16.0815 6.42698L14.3245 8.13398L14.7385 10.544C14.7509 10.6158 14.7429 10.6898 14.7154 10.7573C14.688 10.8249 14.6421 10.8834 14.583 10.9262C14.524 10.969 14.4541 10.9944 14.3814 10.9995C14.3086 11.0046 14.2359 10.9891 14.1715 10.955L11.9995 9.81698Z"
			stroke="#FF41EC"
			stroke-width="2"
			stroke-linecap="round"
			stroke-linejoin="round"
		/>
	</g>
	<defs>
		<clipPath id="clip0_1018_3046">
			<rect width="24" height="24" fill="white" />
		</clipPath>
	</defs>
</svg>
