<?xml version="1.0" encoding="UTF-8"?>
<svg id="Warstwa_2" data-name="Warstwa 2" xmlns="http://www.w3.org/2000/svg" xmlns:xlink="http://www.w3.org/1999/xlink" viewBox="0 0 250.88 253.1">
  <defs>
    <style>
      .cls-1 {
        fill: url(#Gradient_bez_nazwy_9);
      }
    </style>
    <linearGradient id="Gradient_bez_nazwy_9" data-name="Gradient bez nazwy 9" x1="69.56" y1="19.1" x2="211.04" y2="217.32" gradientUnits="userSpaceOnUse">
      <stop offset="0" stop-color="#fcd521"/>
      <stop offset=".23" stop-color="#fdbc15"/>
      <stop offset=".52" stop-color="#fea30a"/>
      <stop offset=".78" stop-color="#fe9504"/>
      <stop offset="1" stop-color="#ff9002"/>
    </linearGradient>
  </defs>
  <g id="Warstwa_1-2" data-name="Warstwa 1">
    <path class="cls-1" d="M220.65,101.84c-6.88-5.12-6.88-10.43-11.06-15.94-6.3-8.29-12.81-2.02-20.05-1.17-16.32,1.91-32.22-10.57-32.47-27.39-.05-3.43,1.35-6.34,1.11-9.96-.62-9.32-9.57-9.63-15.02-15.04-7.32-7.27-5.82-19.7-16.96-22.04-10.08-2.12-30.65,2.26-40.82,5.29C8.44,38.51-24.92,133.14,20.74,199.75c42.97,62.69,133.06,72.09,187.06,17.74,13.6-13.69,25.8-33.91,30.86-52.64,3.35-12.41,6.93-37.06,3.01-49.03-3.25-9.92-13.55-8.43-21.02-13.98ZM152.36,238.56c-51.81,14.83-107.81-10.09-130.93-58.5C-14.53,104.75,41.66,18.02,124.48,21c2.01.69,3.45,6.81,4.8,9.2,4.45,7.83,10.31,13.61,18.43,17.64-2.63,15.04,1.75,28.68,13.41,38.52,12.49,10.54,25.63,9.71,40.93,6.57,2.45,8.97,10.18,16.96,18.41,21.1,2.63,1.32,10.28,2.97,11.19,4.81,7.38,53.37-27.98,105.04-79.3,119.73ZM206.79,64.49c18.6-18.62-8.5-46.64-27.68-30.18-21.44,18.41,8.54,49.34,27.68,30.18ZM239.89,47.05c-16.43,1.53-9.09,27.17,5.63,19.66,9.9-5.05,4.97-20.65-5.63-19.66ZM171.84,23.53c10.57-9.34-4.7-24.98-14.35-15.34-9.14,9.13,4.38,24.15,14.35,15.34ZM232.6,14.83c7.61-1.4,5.65-15.56-2.71-14.8-10.1.92-9.25,17,2.71,14.8ZM53.91,86.1c-35.71,1.46-26.51,58.71,9.07,47.07,25.45-8.33,18.85-48.21-9.07-47.07ZM176.9,132.1c-21.6,3.09-18.29,37.28,4.59,35.67,23.8-1.67,21.33-39.38-4.59-35.67ZM127.87,196.07c-3.88.8-8.41,5.28-10.28,8.72-8.56,15.76,9.8,31.28,24.48,21.48,15.03-10.04,5.21-34.22-14.2-30.2ZM64.87,161.08c-13.92,2.9-13.54,26.87,4.81,25.81,18.78-1.09,15.09-29.95-4.81-25.81ZM100.91,50.04c-18.25,2.5-10.52,31.46,7.13,23.19,12.87-6.03,6.63-25.08-7.13-23.19ZM128.81,140.5c12.53-12.53-8.88-30.11-18.66-16.16-8.71,12.42,8.15,26.68,18.66,16.16Z"/>
  </g>
</svg>