<?xml version="1.0" encoding="UTF-8"?>
<svg id="Warstwa_2" data-name="Warstwa 2" xmlns="http://www.w3.org/2000/svg" viewBox="0 0 562.58 369.54">
  <defs>
    <style>
      .cls-1 {
        stroke: rgba(0, 0, 0, 0);
        stroke-miterlimit: 7.06;
        stroke-width: 1.77px;
      }

      .cls-1, .cls-2 {
        fill: #fff;
      }
    </style>
  </defs>
  <g id="textblock">
    <g id="tight-bounds">
      <g>
        <g id="textblocktransform">
          <path id="text-0" class="cls-2" d="M156.88,178.41l16.7-.63.84,1.16-.95,10.61h-42.44l.74-20.17-.74-47.48h42.86l.84,1.16-1.05,10.61-16.18-.53-12.19.11-.32,16.28,11.66.21,11.03-.32.84,1.05-.95,10.61-11.98-.32-10.82.11-.11,7.25.32,10.19,11.87.11ZM238.62,136.49l4.94,53.05h-11.87l-.74-16.07-1.79-17.33h-.84l-11.66,28.15h-10.19l-10.4-28.15h-.84l-1.89,16.07-1.16,17.33h-11.24l5.67-53.05h15.55l2.1,7.77,7.67,22.48h.84l8.3-22.38,2.31-7.88h15.23ZM278.22,179.25l14.29-.42.84.84-.95,9.88h-36.35l.53-15.76-.53-37.29h36.87l.74,1.05-.84,9.77-13.66-.53h-9.88l-.23,10.72,9.45.11,9.16-.32.74.95-.84,9.98-9.98-.32h-8.72l-.11,4.62.21,6.72h9.24ZM339.97,136.49l.74,1.05-.74,10.09-10.72-.74h-3.05l-.32,25.63.42,17.02h-13.13l.53-15.76-.21-26.89h-3.05l-10.93.74-.84-1.05.74-10.09h40.55ZM363.61,156.03l1.16,1.16v8.61l-25,3.89-1.16-1.16v-8.72l25-3.78ZM408.99,177.78l.84,1.16-.95,10.61h-36.56l.74-20.17-.74-47.48h14.5l-.84,46.22.32,9.67h22.69ZM446.48,136.49l16.91,53.05h-13.34l-1.47-7.67-.95-3.05-10.72-.11-9.45.21-.74,2.21-1.58,8.4h-12.92l18.59-53.05h15.65ZM437.76,168.95l7.04-.11-5.99-20.28h-.84l-7.04,20.28,6.83.11ZM505.31,162.13c3.71.91,6.46,2.36,8.26,4.35,1.78,2,2.67,4.65,2.67,7.94h0c0,5.32-2.21,9.24-6.62,11.77-4.41,2.52-10.96,3.78-19.65,3.78h0c-3.85,0-9.28-.14-16.28-.42h0l.53-15.76-.53-37.29,21.33-.11c5.88,0,10.49,1.16,13.83,3.47,3.32,2.31,4.98,5.64,4.98,9.98h0c0,2.8-.74,5.25-2.21,7.35-1.47,2.1-3.57,3.75-6.3,4.94h0ZM500.06,151.62c0-2.17-.75-3.68-2.25-4.52-1.51-.84-4.16-1.26-7.94-1.26h-3.26l-.21,12.5,7.67.21c2.03-.49,3.54-1.28,4.52-2.37.98-1.08,1.47-2.6,1.47-4.56h0ZM492.28,180.72c3.36,0,5.94-.58,7.73-1.74,1.78-1.15,2.67-2.88,2.67-5.19h0c0-1.68-.6-3.01-1.79-3.99-1.19-.98-3.01-1.75-5.46-2.31h0l-9.14.21-.11,4.83.21,7.88c2.24.21,4.2.32,5.88.32h0ZM546.81,135.76c5.04,0,9.88.88,14.5,2.63h0l-2,11.77-1.89.53c-2.24-1.68-4.41-2.94-6.51-3.78s-4.03-1.26-5.78-1.26h0c-1.96,0-3.5.47-4.62,1.41-1.12.95-1.68,2.09-1.68,3.42h0c0,1.47.7,2.68,2.1,3.61,1.4.95,3.61,2.06,6.62,3.32h0c3.15,1.33,5.72,2.56,7.71,3.68,2,1.12,3.72,2.68,5.15,4.66,1.44,2,2.16,4.51,2.16,7.52h0c0,3.01-.79,5.83-2.37,8.45-1.57,2.63-3.95,4.76-7.14,6.37-3.18,1.61-7.12,2.42-11.81,2.42h0c-2.52,0-5.27-.26-8.26-.78-2.97-.53-5.86-1.36-8.66-2.48h0l1.79-12.4,1.37-.95c2.31,2.1,4.9,3.78,7.77,5.04s5.43,1.89,7.67,1.89h0c1.96,0,3.55-.49,4.77-1.47,1.23-.98,1.85-2.21,1.85-3.68h0c0-1.54-.72-2.79-2.16-3.74-1.43-.94-3.65-2-6.66-3.19h0c-3.15-1.33-5.73-2.58-7.73-3.74-1.99-1.15-3.7-2.74-5.15-4.77-1.43-2.03-2.14-4.55-2.14-7.56h0c0-3.15.85-6.02,2.56-8.61,1.72-2.59,4.17-4.62,7.35-6.09,3.19-1.47,6.93-2.21,11.2-2.21h0Z"/>
          <path id="text-1" class="cls-2" d="M131.03,247.17v-36.06h20.72v3.49h-16.71v14.16h14.5v3.47h-14.5v14.94h-4.01ZM161.59,212.41h0c-1.05,0-1.72-.15-2.03-.44h0c-.47-.49-.7-1.16-.7-2.02s.05-1.47.15-1.84c.1-.37.26-.65.46-.86h0c.37-.37.95-.56,1.73-.56s1.34.04,1.67.12c.34.08.62.23.84.44h0c.38.38.57,1,.57,1.85s-.05,1.47-.14,1.83c-.08.37-.23.67-.43.89h0c-.39.39-1.1.59-2.12.59ZM159.74,247.17l-.05-28.05h3.86v28.05h-3.81ZM188.16,222.33h0c-3.06,0-6.19.9-9.36,2.71h0v22.13h-3.91v-28.05h3.45l.38,2.9c1.71-1.4,3.84-2.39,6.38-2.99h0c1.04-.25,2.26-.38,3.66-.38s2.63.16,3.7.48c1.07.32,1.92.84,2.55,1.54h0c1.15,1.27,1.72,3.59,1.72,6.95h0v19.54h-3.96v-18.81c0-2.27-.22-3.72-.67-4.37-.44-.65-.96-1.09-1.56-1.32-.6-.23-1.39-.34-2.37-.34ZM211.68,247.17v-32.57h-9.62v-3.49h23.57v3.49h-9.94v32.57h-4.01ZM251.97,242.32l1.16,3.37c-3.25,1.31-6.84,1.96-10.77,1.96h0c-2.28,0-4.21-.23-5.79-.7h0c-2.53-.73-4.21-2.22-5.05-4.48h0c-.77-2.12-1.15-5.27-1.15-9.43h0v-1.2c0-4.98,1.04-8.48,3.11-10.49h0c1.87-1.79,4.98-2.68,9.35-2.68h0c4.26,0,7.17,1.05,8.73,3.16h0c.75,1.02,1.25,2.26,1.5,3.72.24,1.45.36,2.83.36,4.15h0c0,2.06-.05,3.66-.14,4.79h0c-2.21.1-4.2.14-5.97.14h0s-1.26,0-3.79,0h0c-3.96,0-7.01-.17-9.14-.52h0c0,3.62.45,6.14,1.36,7.57h0c1.12,1.74,3.34,2.62,6.67,2.62s6.52-.65,9.57-1.96h0ZM234.38,231.33h15.06v-2.26c0-2.47-.48-4.23-1.44-5.28h0c-1.07-1.18-2.92-1.77-5.54-1.77h0c-3.14,0-5.28.68-6.43,2.05h0c-1.1,1.31-1.65,3.73-1.65,7.26h0ZM281.63,242.74l1.18,3.19c-2.19,1.15-5.18,1.72-8.99,1.72h0c-2.25,0-3.89-.17-4.94-.52h0c-2.69-.91-4.45-2.46-5.28-4.64h0c-.58-1.53-.92-3.17-1.01-4.92-.1-1.76-.14-3.25-.14-4.46s.03-2.39.1-3.54c.06-1.15.22-2.26.46-3.33.24-1.07.61-2.06,1.12-2.98.5-.92,1.18-1.72,2.05-2.41h0c1.87-1.45,4.55-2.17,8.06-2.17h0c2.57,0,4.95.38,7.12,1.13h0c.59.19,1.03.37,1.32.54h0l-1.18,3.49c-3.02-1.16-5.49-1.75-7.41-1.75s-3.34.22-4.24.66c-.91.44-1.61,1.11-2.11,2.01h0c-.85,1.54-1.27,4.37-1.27,8.49h0c0,1.65.05,3.15.16,4.51.11,1.36.39,2.53.83,3.5h0c.93,2.01,2.84,3.01,5.73,3.01s5.72-.5,8.46-1.51h0ZM304.74,222.31h0c-3.13,0-6.23.9-9.31,2.71h0v22.16h-3.91v-40.11l3.81-.38v15.34c1.62-1.38,3.73-2.38,6.31-2.99h0c1.04-.25,2.27-.38,3.68-.38s2.66.16,3.73.48c1.07.32,1.92.84,2.55,1.54h0c1.13,1.27,1.7,3.59,1.7,6.95h0v19.54h-3.97v-18.84c0-2.26-.22-3.72-.66-4.37-.44-.65-.96-1.09-1.56-1.31-.61-.23-1.4-.35-2.37-.35ZM335.99,247.17v-35.94c5.11-.39,9.4-.59,12.87-.59h.47c3.78,0,6.44.85,7.96,2.54h0c1.27,1.47,1.91,3.86,1.91,7.17h0c0,4.24-.6,7.4-1.81,9.47h0c-1.24,2.1-3.3,3.42-6.18,3.96h0c.53.66,1.06,1.35,1.58,2.08h0l1.39,2.01,6.2,9.31h-4.71l-5.43-8.53c-1.51-2.29-2.62-3.81-3.35-4.55h-.25c-1.12-.01-2.2-.04-3.23-.07h0l-3.42-.14v13.29h-4.01ZM340,214.23v16.47c1.65.08,4.24.13,7.78.13h0c2.9,0,4.88-.82,5.94-2.45h0c.89-1.43,1.34-3.93,1.34-7.5h0c0-3-.67-4.96-2-5.89h0c-.79-.55-1.65-.85-2.59-.92-.93-.06-1.75-.1-2.45-.1s-1.37,0-2.03,0c-.65,0-1.3.02-1.94.04-.64.01-1.3.04-1.96.07h0l-2.09.14ZM388.7,242.32l1.15,3.37c-3.25,1.31-6.84,1.96-10.76,1.96h0c-2.28,0-4.21-.23-5.8-.7h0c-2.53-.73-4.21-2.22-5.04-4.48h0c-.77-2.12-1.16-5.27-1.16-9.43h0v-1.2c0-4.98,1.04-8.48,3.11-10.49h0c1.87-1.79,4.99-2.68,9.36-2.68h0c4.25,0,7.16,1.05,8.72,3.16h0c.75,1.02,1.25,2.26,1.5,3.72.24,1.45.37,2.83.37,4.15h0c0,2.06-.05,3.66-.14,4.79h0c-2.21.1-4.2.14-5.97.14h0s-1.26,0-3.79,0h0c-3.96,0-7.01-.17-9.14-.52h0c0,3.62.46,6.14,1.37,7.57h0c1.11,1.74,3.34,2.62,6.67,2.62s6.52-.65,9.57-1.96h0ZM371.09,231.33h15.06v-2.26c0-2.47-.48-4.23-1.44-5.28h0c-1.07-1.18-2.92-1.77-5.54-1.77h0c-3.14,0-5.28.68-6.43,2.05h0c-1.1,1.31-1.65,3.73-1.65,7.26h0ZM398.38,244.87l1.7-3.25c3.24,1.81,6.49,2.71,9.76,2.71h0c2.72,0,4.31-.97,4.78-2.91h0c.16-.66.24-1.46.24-2.41s-.11-1.69-.34-2.21c-.22-.53-.59-.92-1.1-1.19-.52-.26-1.21-.45-2.07-.57-.86-.13-1.94-.31-3.26-.53-1.32-.23-2.53-.49-3.63-.77-1.1-.28-2.04-.69-2.81-1.23h0c-1.63-1.15-2.42-3.08-2.36-5.79h0v-.59c0-2.86.94-4.9,2.83-6.11h0c1.82-1.19,4.83-1.6,9.03-1.22h0c2.86.26,5.14.76,6.84,1.48h0l-1.11,3.56c-1.88-.8-4.14-1.39-6.79-1.75h0c-.82-.11-1.58-.16-2.3-.16s-1.36.05-1.94.16-1.07.32-1.46.62h0c-.76.61-1.16,1.75-1.19,3.42h0c-.05,1.96.51,3.21,1.65,3.75h0c1.1.52,2.41.88,3.92,1.07,1.51.2,2.74.37,3.7.52.96.15,1.83.35,2.62.6.79.25,1.46.65,2.03,1.21h0c1.18,1.11,1.75,3.05,1.72,5.82h0c-.08,4.82-2.09,7.57-6.03,8.24h0c-1.19.21-2.38.31-3.58.31s-2.29-.07-3.29-.22c-1-.15-1.95-.36-2.86-.63h0c-1.73-.49-3.3-1.13-4.69-1.93h0ZM448.98,242.32l1.16,3.37c-3.25,1.31-6.84,1.96-10.77,1.96h0c-2.28,0-4.21-.23-5.79-.7h0c-2.53-.73-4.21-2.22-5.05-4.48h0c-.77-2.12-1.15-5.27-1.15-9.43h0v-1.2c0-4.98,1.04-8.48,3.11-10.49h0c1.87-1.79,4.98-2.68,9.35-2.68h0c4.26,0,7.17,1.05,8.72,3.16h0c.76,1.02,1.26,2.26,1.51,3.72.24,1.45.36,2.83.36,4.15h0c0,2.06-.05,3.66-.14,4.79h0c-2.22.1-4.21.14-5.97.14h0s-1.26,0-3.79,0h0c-3.96,0-7.01-.17-9.14-.52h0c0,3.62.45,6.14,1.36,7.57h0c1.12,1.74,3.34,2.62,6.67,2.62s6.52-.65,9.57-1.96h0ZM431.38,231.33h15.06v-2.26c0-2.47-.48-4.23-1.44-5.28h0c-1.07-1.18-2.92-1.77-5.54-1.77h0c-3.14,0-5.28.68-6.43,2.05h0c-1.1,1.31-1.65,3.73-1.65,7.26h0ZM481.79,228.44v8.79c0,3.13.15,6.38.44,9.75h0l-3.49.29-.59-3.28c-2,1.6-4.64,2.72-7.93,3.35h0c-1.07.21-2.02.31-2.85.31s-1.56-.04-2.2-.12c-.64-.08-1.25-.24-1.84-.46-.59-.23-1.13-.54-1.63-.96-.51-.41-.95-.95-1.32-1.62h0c-.8-1.43-1.21-3.15-1.21-5.16s.14-3.56.43-4.66c.3-1.11.78-2.03,1.46-2.77h0c1.33-1.46,3.58-2.19,6.74-2.19s6.53.6,10.11,1.79h0v-3.06c0-3.41-1.41-5.43-4.22-6.05h0c-.91-.21-1.95-.31-3.13-.31h0c-2.69,0-5.48.53-8.37,1.6h0l-.88-3.4c.8-.53,2.85-1.01,6.13-1.44h0c1.04-.12,2.28-.18,3.74-.18s2.88.17,4.28.52c1.4.34,2.57.9,3.49,1.69h0c1.89,1.56,2.83,4.08,2.83,7.57h0ZM477.82,234.45h0c-3.67-.93-7.07-1.39-10.18-1.39h0c-1.92,0-3.19.55-3.82,1.64h0c-.42.77-.64,1.91-.64,3.42,0,1.51.08,2.61.25,3.28.17.68.44,1.23.81,1.67h0c.74.84,1.96,1.26,3.66,1.26h0c2.65,0,5.28-.69,7.9-2.06h0c.8-.41,1.52-.86,2.16-1.36h0c-.1-1.7-.14-3.85-.14-6.46ZM502.53,222.55h0c-2.01,0-4.06,1-6.15,3.01h0v21.62h-3.92v-28.05h3.45l.38,3.72c.74-1.15,1.54-2.04,2.39-2.68.86-.64,1.56-1.04,2.1-1.18h0c.79-.22,1.53-.33,2.24-.33s1.6.14,2.66.42h0l-.36,3.75c-.8-.19-1.73-.28-2.8-.28ZM530.9,242.74l1.18,3.19c-2.18,1.15-5.17,1.72-8.98,1.72h0c-2.25,0-3.9-.17-4.95-.52h0c-2.68-.91-4.44-2.46-5.28-4.64h0c-.58-1.53-.92-3.17-1.01-4.92-.09-1.76-.14-3.25-.14-4.46s.03-2.39.09-3.54c.06-1.15.22-2.26.46-3.33.24-1.07.62-2.06,1.12-2.98.5-.92,1.18-1.72,2.05-2.41h0c1.87-1.45,4.56-2.17,8.06-2.17h0c2.58,0,4.96.38,7.12,1.13h0c.58.19,1.02.37,1.31.54h0l-1.18,3.49c-3.01-1.16-5.48-1.75-7.4-1.75s-3.35.22-4.25.66c-.9.44-1.6,1.11-2.1,2.01h0c-.85,1.54-1.27,4.37-1.27,8.49h0c0,1.65.05,3.15.16,4.51.11,1.36.38,2.53.82,3.5h0c.93,2.01,2.84,3.01,5.74,3.01s5.71-.5,8.45-1.51h0ZM554.02,222.31h0c-3.13,0-6.23.9-9.32,2.71h0v22.16h-3.91v-40.11l3.82-.38v15.34c1.62-1.38,3.72-2.38,6.31-2.99h0c1.04-.25,2.26-.38,3.68-.38s2.66.16,3.73.48,1.91.84,2.54,1.54h0c1.13,1.27,1.7,3.59,1.7,6.95h0v19.54h-3.96v-18.84c0-2.26-.22-3.72-.67-4.37-.44-.65-.96-1.09-1.56-1.31-.61-.23-1.39-.35-2.37-.35Z"/>
        </g>
        <path class="cls-1" d="M368.65,111.3V.88H.88v367.77h367.77v-110.41h-6.19v104.23H7.07V7.07h355.4v104.23h6.19Z"/>
      </g>
    </g>
  </g>
</svg>