<?xml version="1.0" encoding="UTF-8"?>
<svg id="Warstwa_2" data-name="Warstwa 2" xmlns="http://www.w3.org/2000/svg" viewBox="0 0 957.59 273.97">
  <defs>
    <style>
      .cls-1 {
        fill: #fff;
      }
    </style>
  </defs>
  <g id="Warstwa_1-2" data-name="Warstwa 1">
    <g id="kXjd7y.tif">
      <g>
        <path class="cls-1" d="M246.18,14.69c34.44,34.39-1.14,72.7-3.22,110.1-2.42,43.47,42.35,90.94-1.75,124.96-35.53,27.41-77.86-10.58-120.87-7.15-36.9,2.94-76.08,38.98-108.32-.64-30.21-37.13,9.61-77.64,5.94-121.88-2.97-35.79-34.81-67.06-5.99-101.65,33.4-40.11,74.32-2.54,113.08-.51,42.5,2.22,86.22-38.07,121.12-3.22Z"/>
        <polygon class="cls-1" points="367.5 41.76 367.5 112.89 369.29 114.68 440.51 114.68 440.51 41.76 478.81 41.76 478.81 228.24 442.31 228.24 440.51 226.45 440.51 145.76 367.5 145.76 367.5 228.24 330.99 228.24 329.2 226.45 329.2 41.76 367.5 41.76"/>
        <path class="cls-1" d="M726.58,205.53c-15.05,13.72-31.29,17.59-51.2,12.29-53.89-14.34-57.99-103.41-6.56-123.17,20.56-7.9,45-5.3,58.95,12.86v-13.15h34.72v134.48c0,7.95-9.14,23.7-14.97,29.28-27.48,26.27-107.87,21.5-111.9-26.29h35.91c4.2,17.34,34.6,18.04,46.07,9.55,2.87-2.12,8.99-10.53,8.99-13.74v-22.11ZM690.36,119.74c-31.61,5.34-33.35,76.25,11.56,71.31,39.41-4.34,36.47-79.42-11.56-71.31Z"/>
        <path class="cls-1" d="M957.59,228.24h-35.91v-89.06c0-.53-3.1-7.13-3.78-8.17-8.52-12.99-29.85-11.93-39.27-.16-2.58,3.22-7.22,12.87-7.22,16.7v80.69h-35.91V94.36h35.91v16.74c18.45-27.49,62.66-28.17,79.24,1.55,1.85,3.32,6.94,17.34,6.94,20.56v95.03Z"/>
        <path class="cls-1" d="M535.07,94.36c1.41,26.35-1.87,54.6-.05,80.74,1.34,19.29,9.19,29.66,30.3,25.38,7.72-1.56,18.82-14.2,18.82-21.84v-84.27h35.91v133.88h-34.71v-15.54c-3.31,1.25-4.28,5.04-6.59,7.16-21.05,19.28-61.89,15.11-73.83-12.31-.84-1.93-4.56-13.39-4.56-14.57v-98.62h34.71Z"/>
        <rect class="cls-1" x="781.64" y="94.36" width="35.91" height="133.88"/>
        <rect class="cls-1" x="781.64" y="41.76" width="35.91" height="31.08"/>
      </g>
    </g>
  </g>
</svg>