<?xml version="1.0" encoding="UTF-8"?>
<svg id="Warstwa_2" data-name="Warstwa 2" xmlns="http://www.w3.org/2000/svg" viewBox="0 0 174.29 49.63">
  <defs>
    <style>
      .cls-1 {
        fill: #fff;
      }
    </style>
  </defs>
  <g id="Warstwa_1-2" data-name="Warstwa 1">
    <g>
      <path class="cls-1" d="M57.96,14.88h4.3l7.17,12.34h.08v-12.34h3.38v18.57h-3.79l-7.69-13.32h-.08v13.32h-3.38V14.88Z"/>
      <path class="cls-1" d="M75.64,26.6v-.35c0-4.63,2.79-7.06,6.58-7.06,4.25,0,6.04,2.41,6.04,6.9v1.3h-8.99c.24,2.71,1.71,3.6,4.25,3.6,1.73,0,3.06-.41,4.25-.92v2.33c-.97.65-2.63,1.3-5.06,1.3-4.71,0-7.06-2.6-7.06-7.09ZM79.26,25.09h5.5c0-2.46-.89-3.38-2.63-3.38-1.27,0-2.68.73-2.87,3.38Z"/>
      <path class="cls-1" d="M91.55,22.08h-1.89v-2.65h1.89v-1.65c0-3,1.98-4.33,4.66-4.33,1.33,0,2.27.22,2.79.43v2.33c-.38-.08-.97-.19-1.73-.19-1.43,0-2.19.65-2.19,2.14v1.27h3.03v2.65h-3.03v11.37h-3.52v-11.37Z"/>
      <path class="cls-1" d="M99.49,26.6v-.35c0-4.63,2.79-7.06,6.58-7.06,4.25,0,6.04,2.41,6.04,6.9v1.3h-8.99c.24,2.71,1.71,3.6,4.25,3.6,1.73,0,3.06-.41,4.25-.92v2.33c-.97.65-2.62,1.3-5.06,1.3-4.71,0-7.07-2.6-7.07-7.09ZM103.11,25.09h5.49c0-2.46-.89-3.38-2.62-3.38-1.27,0-2.68.73-2.87,3.38Z"/>
      <path class="cls-1" d="M114.54,19.43h3.41v1.65h.14c.73-1.06,2.14-1.79,3.63-1.79.38,0,.7.03.81.11v3.14c-.3-.05-.76-.11-1.11-.11-1.25,0-2.46.35-3.33.87v10.15h-3.55v-14.02Z"/>
      <path class="cls-1" d="M123.99,26.85v-.35c0-5.2,2.65-7.34,6.28-7.34,1.6,0,2.6.41,3.22.76v-6.25h3.55v19.79h-3.03l-.3-1.11h-.13c-.89.84-2.19,1.35-3.95,1.35-2.82,0-5.63-1.81-5.63-6.85ZM133.49,30.1v-7.66c-.46-.35-1.43-.6-2.57-.6-2.06,0-3.28,1.03-3.28,4.36v.49c0,3.38,1.3,4.3,3.28,4.3,1.22,0,2.08-.49,2.57-.89Z"/>
      <path class="cls-1" d="M139.36,29.72c0-2.65,1.84-3.84,4.68-4.25l3.09-.38v-.95c0-1.73-.76-2.14-3.06-2.14-1.38,0-2.63.16-3.55.43v-2.49c1.38-.49,2.95-.76,4.9-.76,3.3,0,5.22,1.19,5.22,4.22v10.04h-2.9l-.27-1.14h-.16c-.62.81-1.81,1.38-3.57,1.38-2.57,0-4.38-1.27-4.38-3.98ZM147.13,30.53v-3.25l-2.3.24c-1.33.14-1.98.62-1.98,1.92s.84,1.84,2,1.84c.89,0,1.84-.33,2.27-.76Z"/>
      <path class="cls-1" d="M154.58,29.88v-7.82h-1.87v-2.63h1.87v-3.3h3.49v3.3h3.22v2.63h-3.22v7.25c0,1.19.51,1.6,1.84,1.6.51,0,1.11-.08,1.52-.22v2.36c-.51.27-1.35.57-2.73.57-2.54,0-4.11-.95-4.11-3.74Z"/>
      <path class="cls-1" d="M163,29.72c0-2.65,1.84-3.84,4.68-4.25l3.09-.38v-.95c0-1.73-.76-2.14-3.06-2.14-1.38,0-2.63.16-3.55.43v-2.49c1.38-.49,2.95-.76,4.9-.76,3.3,0,5.22,1.19,5.22,4.22v10.04h-2.9l-.27-1.14h-.16c-.62.81-1.81,1.38-3.57,1.38-2.57,0-4.38-1.27-4.38-3.98ZM170.77,30.53v-3.25l-2.3.24c-1.33.14-1.98.62-1.98,1.92s.84,1.84,2,1.84c.89,0,1.84-.33,2.27-.76Z"/>
    </g>
    <g>
      <path class="cls-1" d="M13.27,4.49c0,.44-.11.85-.29,1.22l2.95,4.23c.3-.09.62-.16.96-.16,1.81,0,3.28,1.47,3.28,3.28,0,.75-.26,1.43-.68,1.98l12.32,17.69v-16.68c-1.15-.51-1.95-1.66-1.95-2.99,0-1.81,1.47-3.28,3.28-3.28.38,0,.73.08,1.07.19l2.67-3.67c-.41-.49-.67-1.12-.67-1.82,0-.55.16-1.07.44-1.5-3.51-1.91-7.54-2.99-11.82-2.99s-8.4,1.11-11.94,3.06c.25.42.4.91.4,1.43Z"/>
      <path class="cls-1" d="M10.43,42.75c.43,0,.83.1,1.2.27l2.57-3.21c-.37-.53-.59-1.17-.59-1.87,0-1.34.8-2.48,1.95-2.99v-18.89c-1.15-.51-1.95-1.66-1.95-2.99,0-.44.09-.86.25-1.24l-3.16-4.52c-.09,0-.17.03-.27.03-.87,0-1.64-.4-2.16-1.01C3.2,10.86,0,17.46,0,24.81s3.3,14.15,8.51,18.69c.51-.47,1.18-.76,1.92-.76Z"/>
      <path class="cls-1" d="M36.19,45.33c0-.43.1-.83.27-1.19l-2.2-3.14c-.36.13-.74.22-1.14.22-1.81,0-3.28-1.47-3.28-3.28,0-.81.31-1.54.79-2.12l-12.43-17.77v16.89c1.15.51,1.95,1.66,1.95,2.99,0,1.81-1.47,3.28-3.28,3.28-.62,0-1.19-.18-1.69-.48l-2.48,3.19c.34.47.54,1.04.54,1.66,0,.38-.08.75-.22,1.08,3.5,1.89,7.5,2.96,11.76,2.96s8.24-1.07,11.73-2.95c-.22-.4-.36-.86-.36-1.35Z"/>
      <path class="cls-1" d="M41.26,6.24c-.52.66-1.32,1.09-2.22,1.09-.38,0-.74-.08-1.08-.21l-2.54,3.61c.6.59.98,1.42.98,2.33,0,1.34-.8,2.48-1.95,2.99v18.89c1.15.51,1.95,1.66,1.95,2.99,0,.39-.08.76-.21,1.11l2.43,3.48c.14-.02.27-.04.41-.04.85,0,1.61.38,2.13.98,5.18-4.55,8.46-11.22,8.46-18.66s-3.24-14.03-8.37-18.57Z"/>
    </g>
  </g>
</svg>